<svg version="1.1" id="Layer_1" xmlns="http://www.w3.org/2000/svg" xmlns:xlink="http://www.w3.org/1999/xlink" x="0px" y="0px"
	 width="100%" viewBox="0 0 496 496" enable-background="new 0 0 496 496" xml:space="preserve">
<path fill="#000000" opacity="1.000000" stroke="none" 
	d="
M225.515839,269.550964 
	C210.532440,261.271729 199.382217,250.170776 194.129364,233.791412 
	C191.805115,226.543961 191.140945,219.110168 191.118332,211.637360 
	C191.005493,174.314133 191.054642,136.990356 191.078949,99.666817 
	C191.083496,92.684570 191.151077,92.672157 197.889389,92.664162 
	C207.720154,92.652489 217.556396,92.853058 227.379288,92.574455 
	C231.866272,92.447189 233.088028,94.117722 233.026367,98.389389 
	C232.822006,112.549278 232.954224,126.714027 232.957230,140.876907 
	C232.957581,142.519424 232.957291,144.161942 232.957291,146.297089 
	C245.079681,147.311737 257.085571,145.468582 269.688629,148.888199 
	C269.688629,130.293228 269.688629,112.472046 269.688629,93.609856 
	C280.052795,98.818649 288.789612,104.089897 295.751587,111.875046 
	C306.053345,123.394875 311.296692,136.957352 311.323792,152.405090 
	C311.391632,191.061600 311.349365,229.718307 311.344269,268.374939 
	C311.343353,275.360901 311.328033,275.366302 304.158875,275.367981 
	C294.661346,275.370209 285.158752,275.179108 275.668518,275.440430 
	C271.191589,275.563721 269.507324,274.227417 269.593018,269.531647 
	C269.851501,255.373383 269.540131,241.205017 269.771240,227.045822 
	C269.841156,222.760284 268.692963,221.244583 264.192719,221.239243 
	C254.909576,221.228256 245.547318,222.361069 236.350494,219.855576 
	C232.397141,218.778580 232.989044,221.978149 232.980148,224.171921 
	C232.922775,238.334518 232.950699,252.497452 232.917404,266.660187 
	C232.912827,268.609161 233.202972,270.637177 232.127914,272.508942 
	C229.374695,272.798187 227.885956,270.608826 225.515839,269.550964 
M300.257416,137.333588 
	C296.060028,126.897850 290.516052,117.528671 280.435608,111.457870 
	C278.799103,113.722664 279.371918,115.788750 279.367126,117.707924 
	C279.313049,139.358139 279.228485,161.009323 279.406464,182.658157 
	C279.442291,187.016525 278.104370,188.519791 273.700470,188.399368 
	C263.881866,188.130905 254.050903,188.315750 244.224976,188.314133 
	C232.871216,188.312256 232.871185,188.311447 232.940140,199.405197 
	C233.001480,209.273972 234.590897,210.944153 244.619324,211.638611 
	C245.615021,211.707550 246.616852,211.703629 247.615891,211.705750 
	C263.936646,211.740356 280.259979,211.618439 296.576508,211.897018 
	C301.290314,211.977509 302.970947,210.691803 302.887146,205.770782 
	C302.609283,189.454391 302.687286,173.129807 302.810730,156.809753 
	C302.858917,150.437408 302.303528,144.198898 300.257416,137.333588 
M252.413437,156.264755 
	C236.934677,156.252289 221.453964,156.371185 205.978394,156.142792 
	C201.651947,156.078949 200.197586,157.340317 200.255508,161.789169 
	C200.482986,179.262360 200.176331,196.742493 200.400116,214.215790 
	C200.589523,229.004852 205.798904,241.810379 216.770416,252.018387 
	C218.867676,253.969696 220.770966,256.247467 224.053741,257.225616 
	C224.053741,232.877258 224.032806,209.104553 224.067383,185.331940 
	C224.076904,178.789062 224.224777,178.699554 230.841980,178.690186 
	C242.159866,178.674133 253.477875,178.708115 264.795593,178.663177 
	C266.850769,178.655014 269.102753,179.190994 269.684570,175.913681 
	C272.529388,159.888794 269.772247,156.495926 252.413437,156.264755 
M215.411621,102.216942 
	C211.754166,102.221718 208.094040,102.314751 204.440109,102.203583 
	C201.470810,102.113228 200.296387,103.331856 200.319550,106.337173 
	C200.413040,118.472717 200.419998,130.609955 200.314392,142.745316 
	C200.286789,145.916672 201.762177,146.746094 204.592636,146.677292 
	C209.244873,146.564240 213.915604,146.426300 218.552795,146.713989 
	C222.682205,146.970184 224.145386,145.442764 224.069748,141.320114 
	C223.877686,130.849945 224.020493,120.373795 224.011627,109.900047 
	C224.005157,102.260818 223.992661,102.260826 215.411621,102.216942 
M292.470215,221.345322 
	C289.471344,221.351257 286.469208,221.446487 283.474487,221.337860 
	C280.506958,221.230240 279.284302,222.475922 279.302887,225.475830 
	C279.378052,237.637482 279.368622,249.800171 279.293701,261.961884 
	C279.276550,264.748352 280.447937,265.878479 283.166809,265.842773 
	C287.997406,265.779327 292.838989,265.648926 297.658020,265.896423 
	C301.584595,266.098083 302.924652,264.613129 302.846222,260.701141 
	C302.645813,250.708939 302.788055,240.709885 302.788452,230.713577 
	C302.788849,219.800842 303.457947,221.504318 292.470215,221.345322 
z"/>
<path fill="#000000" opacity="1.000000" stroke="none" 
	d="
M303.900085,337.128876 
	C302.689758,335.321228 301.679596,333.806976 299.730774,330.885620 
	C299.730774,335.600098 299.734863,338.885223 299.729218,342.170349 
	C299.725891,344.102814 299.043793,345.321777 296.820496,345.290100 
	C294.743744,345.260437 293.748047,344.296875 293.741516,342.279999 
	C293.718903,335.307037 293.707031,328.334015 293.716705,321.360992 
	C293.718597,319.992310 293.893707,318.612488 295.567688,318.263763 
	C297.430969,317.875610 298.758850,318.736450 299.751648,320.264801 
	C302.159088,323.970886 304.579712,327.668396 308.030487,331.174500 
	C308.030487,328.100922 307.986267,325.026459 308.045349,321.953979 
	C308.088135,319.728851 308.820618,318.008850 311.512054,318.123688 
	C314.049927,318.231995 314.299072,319.987518 314.296783,321.955627 
	C314.289215,328.431030 314.321564,334.906555 314.278931,341.381683 
	C314.269440,342.824677 314.498352,344.565308 312.578735,345.091736 
	C310.636749,345.624390 308.975311,345.096008 307.843567,343.300293 
	C306.605042,341.335144 305.348785,339.381134 303.900085,337.128876 
z"/>
<path fill="#000000" opacity="1.000000" stroke="none" 
	d="
M344.967285,324.137573 
	C347.417297,331.042358 349.722961,337.583984 352.142334,344.448212 
	C348.719482,345.540039 346.316986,346.241150 344.486267,342.385651 
	C342.852173,338.944183 336.797882,338.824585 335.104553,342.175751 
	C333.423950,345.501740 331.376678,345.942719 327.542786,344.313751 
	C330.499115,336.095764 333.243195,327.822418 336.503998,319.757935 
	C337.625244,316.984894 341.792755,317.381805 343.309814,320.095490 
	C343.952240,321.244629 344.326691,322.543549 344.967285,324.137573 
z"/>
<path fill="#000000" opacity="1.000000" stroke="none" 
	d="
M210.880493,344.820404 
	C207.807205,345.622711 205.633194,345.532410 204.037964,342.365417 
	C202.263840,338.843201 196.830215,339.026733 194.608505,342.300232 
	C192.484619,345.429565 192.484634,345.429565 187.996521,344.817596 
	C187.207169,342.085449 188.903778,339.799103 189.717529,337.407043 
	C191.586151,331.914124 193.680588,326.498230 195.574341,321.013428 
	C196.187225,319.238312 197.145660,318.147034 199.069931,318.047333 
	C200.632385,317.966370 202.343903,318.090576 202.892075,319.718719 
	C205.678558,327.995087 209.995087,335.765503 210.880493,344.820404 
z"/>
<path fill="#000000" opacity="1.000000" stroke="none" 
	d="
M259.272461,334.394592 
	C260.972198,329.650787 262.494202,325.255737 264.075897,320.882294 
	C264.674072,319.228302 265.671936,317.993866 267.677765,317.986603 
	C269.479553,317.980072 270.946472,318.403259 271.641449,320.294708 
	C274.548615,328.206940 277.476166,336.111664 280.486206,344.262726 
	C276.856140,345.835388 274.571075,345.959320 272.700989,342.344147 
	C270.850769,338.767395 264.955414,338.886688 263.070129,342.528046 
	C261.421112,345.713196 259.314240,345.743683 256.348145,344.662628 
	C256.135651,341.005463 258.365662,338.069855 259.272461,334.394592 
z"/>
<path fill="#000000" opacity="1.000000" stroke="none" 
	d="
M155.091705,345.012756 
	C152.464264,336.726624 153.931381,328.455688 153.801163,320.244507 
	C153.775208,318.608612 155.100571,318.064056 156.588150,318.093323 
	C158.108292,318.123199 159.143280,318.786133 159.235428,320.431335 
	C159.309647,321.756561 159.447983,323.097534 159.328049,324.410522 
	C159.023636,327.743469 160.607681,328.707123 163.744156,328.712128 
	C166.865555,328.717133 167.924606,327.389038 167.714844,324.496887 
	C167.631088,323.342163 167.740082,322.173584 167.759567,321.011261 
	C167.789200,319.243774 168.627747,318.176361 170.439728,318.086792 
	C172.262253,317.996643 173.994080,318.477051 174.020599,320.610168 
	C174.113388,328.077728 174.086090,335.548523 173.964569,343.015839 
	C173.933655,344.915710 172.382492,345.317993 170.723450,345.263306 
	C169.243729,345.214447 168.074814,344.725250 167.885010,343.094330 
	C167.731995,341.779541 167.671707,340.441986 167.712982,339.118988 
	C167.798370,336.382416 167.571106,334.253113 163.858521,334.248169 
	C160.313217,334.243469 159.300644,335.715851 159.256943,339.048187 
	C159.223999,341.561066 160.944489,345.704010 155.091705,345.012756 
z"/>
<path fill="#000000" opacity="1.000000" stroke="none" 
	d="
M238.121506,318.364288 
	C242.977997,319.741791 241.687820,322.650696 240.761383,325.686676 
	C238.674133,324.879272 236.879837,323.976288 234.978394,323.513062 
	C233.339584,323.113800 231.340179,323.268219 230.773560,325.189209 
	C230.109497,327.440582 232.265350,327.861237 233.753647,328.380035 
	C235.304947,328.920776 237.022827,328.988861 238.566772,329.544495 
	C244.291321,331.604706 245.992874,337.750244 242.200775,342.392181 
	C238.936890,346.387573 229.642151,347.371216 225.593460,344.149719 
	C223.885986,342.791046 223.751175,341.762238 224.850967,337.580902 
	C227.522888,338.072174 229.685226,340.442322 232.640228,339.952148 
	C234.524368,339.639587 237.142822,340.279877 237.415070,337.562439 
	C237.656479,335.152771 235.147171,335.106995 233.494858,334.551941 
	C232.721390,334.292114 231.843033,334.364136 231.037552,334.176819 
	C226.833893,333.199127 224.124023,330.701447 224.167725,326.244049 
	C224.212784,321.648315 226.929291,318.900024 231.334900,317.928162 
	C233.453430,317.460815 235.631454,317.531006 238.121506,318.364288 
z"/>
</svg>